<?xml version="1.0" encoding="UTF-8"?>
<svg id="Calque_2" data-name="Calque 2" xmlns="http://www.w3.org/2000/svg" viewBox="0 0 770.96 392.66">
  <defs>
    <style>
      .cls-1 {
        fill: #f2ed3a;
      }

      .cls-2 {
        letter-spacing: 0em;
      }

      .cls-3 {
        letter-spacing: 0em;
      }

      .cls-4 {
        fill: #e8e4d9;
      }

      .cls-5 {
        letter-spacing: -.02em;
      }

      .cls-6 {
        letter-spacing: 0em;
      }

      .cls-7 {
        letter-spacing: -.01em;
      }

      .cls-8 {
        letter-spacing: -.02em;
      }

      .cls-9 {
        fill: #e4e2d8;
      }

      .cls-10 {
        letter-spacing: -.03em;
      }

      .cls-11 {
        letter-spacing: 0em;
      }

      .cls-12 {
        fill: #f26b74;
      }

      .cls-13 {
        letter-spacing: -.01em;
      }

      .cls-14 {
        font-family: LocalBreweryFour-Regular, 'Local Brewery';
        font-size: 36px;
      }

      .cls-14, .cls-15 {
        fill: #e9e5da;
      }
    </style>
  </defs>
  <g id="Calque_1-2" data-name="Calque 1">
    <circle class="cls-1" cx="403.48" cy="111.2" r="33"/>
    <rect class="cls-12" x="334.48" y="49.2" width="64" height="64"/>
    <g>
      <g>
        <path class="cls-15" d="m384.66.09c30.47,0,60.95.07,91.42-.09,4.17-.02,5.69.76,5.68,5.39-.17,60.95-.17,121.9,0,182.85.01,4.55-1.42,5.51-5.66,5.5-60.95-.12-121.89-.12-182.84,0-4.22,0-5.68-.93-5.67-5.49.16-60.95.16-121.9,0-182.85-.01-4.61,1.48-5.43,5.66-5.4,30.47.17,60.95.09,91.42.09Zm83.52,96.88c0-25.98-.09-51.97.09-77.95.03-4.46-1.13-6-5.84-5.98-51.47.16-102.93.1-154.4.12-6.78,0-6.8.06-6.8,6.98,0,50.97,0,101.94,0,152.9q0,7.05,7.16,7.06c51.3,0,102.6-.04,153.9.11,4.48.01,6.05-1.01,6.01-5.79-.23-25.82-.11-51.63-.11-77.45Z"/>
        <path class="cls-15" d="m256.93,177.04c.09,4.16.11,8.32.31,12.47.14,3.05-1.3,4.24-4.18,4.13-1.16-.04-2.33.01-3.5.01-80.79,0-161.59,0-242.38,0-8.58,0-7.05.18-7.11-7.35-.09-10.25-.02-10.25,10.09-10.25,79.63,0,159.25,0,238.88,0,2.33,0,4.66.13,6.98.19.3.26.6.52.9.79Z"/>
        <path class="cls-15" d="m770.11,176.07q1.89,15.77-13.5,15.77c-78.44,0-156.87,0-235.31,0q-7.36,0-7.37-7.12,0-9.66,9.7-9.66c79.43,0,158.87,0,238.3,0,2.33,0,4.66.12,6.98.18.39.28.79.55,1.18.83Z"/>
        <path class="cls-4" d="m765.11,176.07c-.39-.28-.79-.55-1.18-.83.64-.07,1.22-.06,1.18.83Z"/>
        <path class="cls-9" d="m256.93,177.04l-.9-.79c.55-.02.94.14.9.79Z"/>
        <path class="cls-4" d="m324.01,78.47c0-12.65.12-25.3-.08-37.95-.06-3.68,1.01-4.92,4.77-4.9,25.47.13,50.93.13,76.4,0,3.76-.02,4.9,1.28,4.81,4.94-.21,8.82.05,17.64-.12,26.46-.07,3.42.74,5.2,4.4,6.42,14.32,4.78,25.6,13.63,29.42,28.67,4.86,19.17.48,36.63-18.07,48.63-18.14,11.74-40.01,8.16-53.71-6.65-4.75-5.14-8.37-11.24-9.99-18.15-.87-3.69-2.68-4.71-6.25-4.62-8.65.21-17.31-.12-25.96.14-4.22.12-5.84-.98-5.72-5.55.31-12.48.11-24.96.11-37.45Zm72.15-.01c0-8.33-.11-16.66.05-24.98.06-3.26-1.11-4.39-4.33-4.37-16.49.11-32.97.13-49.46.01-3.68-.03-4.94,1.33-4.91,4.97.13,16.32.14,32.64,0,48.96-.03,3.78,1.5,4.86,5.05,4.84,16.32-.1,32.64-.12,48.96.06,3.88.04,4.79-1.47,4.7-5.02-.2-8.16-.06-16.32-.07-24.48Zm13.69,25.6h-.02c0,4.16-.29,8.34.08,12.46.37,4.18-1.44,5.05-5.16,4.95-8.14-.21-16.29-.1-24.44-.07-5.82.02-6.08.5-3.44,5.87,6.73,13.69,18.85,19.22,34.27,15.65,10.89-2.52,20.37-14.52,20.89-26.44.58-13.39-6.94-24.73-18.65-28.71-2.87-.98-3.58-.42-3.55,2.32.05,4.65.01,9.31.01,13.97Z"/>
        <g>
          <path class="cls-4" d="m140.21,325.55c-17.29,9.73-2.86-23.76-24.43-15.34-3.76,1.47-3.72,7.17-4.27,10.42-.28,1.69-.64,3.65-1.9,4.92-1.53,1.54-4.28,2.15-5.43-.13-.49-.97-.56-2.1-.61-3.19-.19-4.36-.17-8.73.08-13.09.43-7.74,1.98-15.23,2.61-22.91.37-4.5.87-9,1.55-13.46,1.05-6.96,2.41-14.03,4.97-20.61,1.16-2.97,3.1-8.09,6.68-8.92s6.18,4.05,7.44,6.7c3.88,8.15,5.63,17.43,7.24,26.23,1.31,7.19,2.35,14.42,3.25,21.67.54,4.39,1.03,8.79,1.48,13.19.24,2.4.48,4.81.7,7.21.07.77,1.08,7.07.64,7.32Zm-14.04-33.75c-.69-4.63-1.29-9.27-1.97-13.9-.33-2.25-.68-4.5-1.07-6.74-.25-1.42-.25-4.08-1.91-4.68-3.9-1.4-4.65,12.78-4.85,15-.3,3.43-.49,6.87-.6,10.31-.11,3.46,1.55,7.56,5.63,7.15,3.63-.37,5.87-3.63,4.78-7.13Z"/>
          <path class="cls-4" d="m186.35,264.06c-.16,6.51-.34,13,.08,19.5s1.06,13.54.75,20.32c-.48,10.61-4.02,20.94-14.87,24.74-5-.02-10.13-1.39-13.22-5.59-3.25-4.41-3.68-10.37-3.81-15.65-.18-7.63-.37-15.16-.55-22.8-.22-9.4-.4-18.72-.15-28.09.09-3.59.49-15.54,6.87-14.47,4.08.68,3.78,10.04,3.88,12.8.44,11.4-.52,22.83-.82,34.23-.14,5.35-.23,10.74.16,16.08.28,3.75.34,10.75,5.14,11.62,1.27.23,2.64-.13,3.63-.96,1.33-1.11,1.88-2.88,2.28-4.56,1.43-6.02,1.59-12.28,1.47-18.44-.14-7.39-.76-14.76-1.02-22.14s-.82-13.8.32-20.9c.27-1.72.63-3.47,1.58-4.93,1.66-2.56,5.43-3.58,7.51-1.01,1.52,1.87,1.03,4.2,1,6.46l-.1,7.93c-.02,1.97-.07,3.93-.12,5.89Z"/>
          <path class="cls-4" d="m239.56,290.86c-.05,5.42-.49,10.86-1.56,16.13-1.17,5.72-2.08,10.42-5.98,15.01-1.82,2.14-5.12,3.16-7.71,3.92-4.55,1.34-11.34,2.81-15.75.25-2.94-1.71-2.79-5.82-3.23-8.81-1-6.79-1.39-13.7-1.67-20.54-.3-7.27-.59-14.57-.06-21.84.27-3.7.71-7.35,1-11.05s.89-7.36,2.03-10.87c1.97-6.06,6.41-12.94,13.65-12.41s12.31,7.68,14.98,13.77c4.91,11.19,4.43,24.49,4.32,36.44Zm-11.48-14.76c0-2.2-.03-4.4-.06-6.6-.04-2.6,0-5.2-.28-7.79-.24-2.23-.68-4.62-2-6.49-1.55-2.19-6.71-3.4-8.45-1.12-1.39,1.81-1.84,4.56-2.17,6.75-1.16,7.62-.18,15.3-.25,22.95l-.18,18.57c-.02,2.48.1,4.58.57,6.96.44,2.26.27,4.79,2.1,6.52,1.95,1.85,5.94.1,7.23-1.87,3.94-6.04,3.4-13.68,3.44-20.55.03-5.78.08-11.55.06-17.33Z"/>
          <path class="cls-4" d="m266.2,265.24c-.14,5.08-.11,10.15.16,15.25.37,6.99.85,13.97,1.07,20.97.18,5.74.34,11.61-.54,17.31-.4,2.58-1.07,7.07-4.31,7.48-7.3.93-4.98-3.56-5.2-8.73,1.97-11.15-7.08-78.17,5.54-74.34,4.8-.72,4,8.21,3.82,10.88-.25,3.74-.44,7.46-.54,11.18Z"/>
          <path class="cls-4" d="m317.34,306.19c.07,6.08-.71,11.89-5.76,16.65-3.52,3.32-8.47,5.36-13.34,4.7-12.37-1.68-13.54-17.02-14.13-26.77-.34-5.59.5-11.14.31-16.66-.29-8.5-.28-17.19,1.36-25.57,1.16-5.94,3.35-13,8.99-16.17,5.65-1.16,12.04-.99,16.31,3.4,3.89,4,5.11,9.98,5.69,15.32.64,5.89.17,11.74.31,17.64.13,5.04.2,10.14-.04,15.17-.19,4.06.24,8.24.29,12.3Zm-10.03-21.34c.07-2.09.16-4.17.31-6.26.15-2.09.19-4.18.12-6.27-.13-3.7-.59-7.41-1.5-11-.61-2.4-2.66-10.68-6.54-9.87-3.52.73-4.23,8.68-4.37,11.25-.28,5.19-.85,10.36-1.26,15.54-.33,4.13-.15,8.02-.05,12.12.12,5.3.63,10.63,1.75,15.82.41,1.89,3.33,14.86,7.43,11.32,2.3-1.98,2.61-6.76,2.96-9.48,1-7.71.88-15.44,1.13-23.18Z"/>
          <path class="cls-4" d="m365.33,245.33c.93,1.92.22,5.39.02,7-.34,2.69-.68,5.39-1.03,8.08-.7,5.39-1.41,10.79-2.17,16.17-1.37,9.74-2.84,19.48-4.8,29.12-1.25,6.14-2.41,12.98-5.44,18.56-1.76,3.23-4.07,3.9-6.1.48-1.6-2.7-2.48-5.88-3.31-8.89-1.46-5.33-2.52-10.78-3.48-16.22-1.93-10.93-3.39-21.95-4.71-32.97-.64-5.29-2.09-10.48-2.64-15.78-.23-2.16-.44-4.91.85-6.81.57-.84,1.34-1.33,2.3-1.62,1.85-.55,3.02.72,3.74,2.38,1.58,3.68,1.83,8.34,2.61,12.27.71,3.56,1.43,7.12,2.17,10.67,1.02,4.9,2.06,9.81,3.29,14.67.23.91,1.9,9.07,3.5,7.75.76-.63.75-3.13.86-3.99.3-2.42.49-4.86.7-7.29.53-6.23,1.07-12.47,2.2-18.62.87-4.71,1.93-10.69,5.43-14.26.98-1,3.51-2.56,5.02-1.77.45.24.77.61,1,1.08Z"/>
          <path class="cls-4" d="m392.25,265.25c-1.94,11.01,5.92,60.58-3.77,61.01-7.3.93-4.98-3.56-5.2-8.73,2.02-11.57-7.19-77.68,5.54-74.34,6.82-1.01,2.44,17.52,3.43,22.07Z"/>
          <path class="cls-4" d="m444.07,305.51c-.15,4.73-1.27,9.25-3.7,13.33-3.21,5.41-9.27,9.86-15.84,8.96-4.37-.6-6.63-3.32-9.63-6.15-4.41-4.17-8.97-24.67,1.73-22.29l.27.07c.83.23,1.62.69,2.08,1.42.46.72.54,1.61.6,2.46.34,4.34,1.07,10.84,5.66,13.14,2.42,1.21,4.61-.34,5.91-2.39,4.56-7.14,1.95-17.57-2.74-23.9-1.96-2.65-4.1-4.69-6.92-6.32-2.54-1.46-5.44-3.05-7.03-5.61-1.41-2.27-2.52-4.65-3.23-7.24-3.01-10.99.47-26.14,13.1-28.99,1.3-.29,2.4-.77,3.78-.74,5.23.14,8.76,5.09,10.33,9.59,1.47,4.23,2.27,11.21-3.67,11.88-1.08.12-2.22-.03-3.12-.63-2.29-1.53-.86-3.81-1.48-5.89-.44-1.47-1.29-3.01-2.75-3.67-3.58-1.62-6.5,2.65-7.69,5.39-2.14,4.93.36,11.21,3.36,15.14,3.4,4.46,7.95,7.88,11.94,11.78,2.97,2.9,5.79,6.12,7.32,10.03,1.27,3.25,1.83,6.94,1.71,10.64Z"/>
          <path class="cls-4" d="m491.14,264.07c-1.52,7.43-.68,15.26-.17,22.75.53,7.82,1.21,15.85-.14,23.63-.55,3.16-1.44,7-3.21,9.69-2.22,3.37-6.07,5.96-9.8,7.35-3.7,1.38-7.3.92-10.71-1.11-4.9-2.91-6.6-8.56-7.2-13.91-.35-3.17-.05-6.37-.33-9.52-.25-2.73-.36-5.21-.21-8,.37-6.71.79-13.44.32-20.15-.52-7.32-1.27-14.78-.57-22.11.38-3.99,1.41-10.66,6.66-10.69,11.36,1.9-7.56,92.63,13.69,72.57,1.04-.98,1.14-5.22,1.34-6.61.32-2.31.52-4.63.63-6.95.23-4.85.09-9.71-.13-14.55-.4-8.68-1.15-17.38-.78-26.08.17-4.03.59-8.06,1.52-11.98.46-1.93.75-3.36,2.37-4.68,1.46-1.19,3.5-1.86,5.04-.42,1.58,1.47,1.92,3.87,2.04,5.91.16,2.66-.12,5.33-.31,7.98-.09,1.27-.19,2.54-.21,3.82-.01.91.35,2.21.18,3.07Z"/>
          <path class="cls-4" d="m508.48,251.8c-2.71-11.64,13.33-8.91,10.74,1.06.21,9.13-13.03,16.78-7.31,4.6,2.14-5.05-1.56-.83-3.42-5.66Z"/>
          <path class="cls-4" d="m572.44,325.69c-2.07,1.73-5.4,2.44-7.55.98-2.21-1.5-2.52-5.16-3.02-7.53-1.73-8.09-5.18-12.37-13.97-8.94-4.55,1.78-3.51,8.92-4.73,12.62-1.85,5.59-7.42,5.92-9.38.15-.8-2.34-.67-4.89-.53-7.36.98-17.48,2.01-34.77,6.53-51.77,1.29-4.87,6.74-25.46,15.13-19.75,4.37,2.97,6.14,10.52,7.5,15.19,2.84,9.76,4.76,19.76,6.18,29.81.61,4.27.49,8.27,1.46,12.48,1.23,5.35,2.45,10.7,3.68,16.06.37,1.63.75,3.3.55,4.97-.14,1.18-.85,2.25-1.85,3.08Zm-14.16-33.89c-1.35-4.34-1.33-9.56-2-14.06-.36-2.43-.71-4.86-1.17-7.27-.49-2.58-2.6-4.44-4.45-1.85-1.6,2.24-1.57,7.14-1.88,9.77-.59,5.13-2.41,11.22-.57,16.35,2.45,6.82,12.24,4.05,10.06-2.94Z"/>
          <path class="cls-4" d="m620.11,275.63c.89,10.85-7.38,19.12-8.62,28.67-.31,7.7,11.69,26.4-3.3,22.77-3.83-2.14-2.15-29.66-10.86-18.17-1.87,5.26,2.42,16.68-3.77,18.06-9.3,2.04-6.69-15.63-6.51-20.31.5-12.65-.01-25.43-.04-38.09,0-5.08-.66-10.2-.05-15.27.31-2.6,1.58-9.72,4.94-10.47,20.35-4.52,29.18,14.94,28.21,32.81Zm-10.23-5.38c-.22-2.72-.73-5.38-1.57-7.84-.98-2.88-2.85-7.85-6.72-7.36-9.04,1.16-5.93,25.24-5.46,31.37.13,1.75.85,3.42,2.21,4.57,5.32,4.52,8.64-1.12,10.06-5.98,1.33-4.55,1.89-9.76,1.48-14.76Z"/>
          <path class="cls-4" d="m663.89,248.49c-.19,4.15-3.77,3.83-6.89,4.08-1.92.16-3.37.49-3.85,2.48-1.12,4.63-1.07,9.57-1.21,14.31-.15,4.99-.08,9.98.03,14.97.23,10,.69,20.02.15,30.02-.1,1.87-.17,3.75-.3,5.62-.14,2.06.22,5.55-1.98,6.65-4.22,2.11-7.35-3.89-8.16-6.93-2.25-8.41-1-17.91-.28-26.45.81-9.54,2.15-19.21,1.68-28.8-.19-3.91-1.26-14.33-7.74-12.78-4.19,1-5.33-5-3.54-7.67,4.18-2.32,9.99-.77,14.63-1.18,5.89,1.5,17.9-3.78,17.46,5.66Z"/>
        </g>
      </g>
        </g>
  </g>
</svg>